<svg xmlns="http://www.w3.org/2000/svg" viewBox="0 0 24 24" fill="#d4af37" stroke="#d4af37" stroke-width="1.5" stroke-linecap="round" stroke-linejoin="round">
  <path d="M8.5 14.5A2.5 2.5 0 0 0 11 12c0-1.38-.5-2-1-3-1.07-2-2-4-2-6 0-1.38.69-2 1.5-2 2.31 0 3.5 2.38 3.5 4.5 0 1.39-.5 2.5-1 3.5 0 .82.38 1.5 1 1.5a2.5 2.5 0 0 0 0-5c-.38 0-.75.09-1 .25-.63.39-1.5-.25-1.5-1 0-1.5 1-3 1-3s1 1.5 1 3c0 .82-.38 1.5-1 1.5a2.5 2.5 0 0 0 0 5c.62 0 1-.68 1-1.5 0-1.38.5-2.5 1-3.5 1.07-2 2-4 2-6 0-1.38-.69-2-1.5-2-2.31 0-3.5 2.38-3.5 4.5 0 1.39.5 2.5 1 3.5 0 .82-.38 1.5-1 1.5a2.5 2.5 0 1 0 0 5z"/>
</svg>

